<?xml version="1.0" encoding="UTF-8" standalone="no"?>
<svg
   enable-background="new 0 0 64 64"
   height="64px"
   id="Layer_1"
   version="1.1"
   viewBox="0 0 64 64"
   width="64px"
   xml:space="preserve"
   sodipodi:docname="1743799_chip_hardware_microchip_programming_processor_icon.svg"
   inkscape:version="1.3.2 (091e20e, 2023-11-25)"
   xmlns:inkscape="http://www.inkscape.org/namespaces/inkscape"
   xmlns:sodipodi="http://sodipodi.sourceforge.net/DTD/sodipodi-0.dtd"
   xmlns:xlink="http://www.w3.org/1999/xlink"
   xmlns="http://www.w3.org/2000/svg"
   xmlns:svg="http://www.w3.org/2000/svg"><defs
     id="defs3"><linearGradient
       id="linearGradient3"
       inkscape:collect="always"><stop
         style="stop-color:#ffbf66;stop-opacity:1;"
         offset="0.25999999"
         id="stop3" /><stop
         style="stop-color:#ffbb5c;stop-opacity:1;"
         offset="1"
         id="stop4" /></linearGradient><linearGradient
       inkscape:collect="always"
       xlink:href="#linearGradient3"
       id="linearGradient4"
       x1="4.75"
       y1="32.25"
       x2="59"
       y2="32.25"
       gradientUnits="userSpaceOnUse" /></defs><sodipodi:namedview
     id="namedview3"
     pagecolor="#505050"
     bordercolor="#eeeeee"
     borderopacity="1"
     inkscape:showpageshadow="0"
     inkscape:pageopacity="0"
     inkscape:pagecheckerboard="0"
     inkscape:deskcolor="#505050"
     inkscape:zoom="3.6875"
     inkscape:cx="32"
     inkscape:cy="31.864407"
     inkscape:window-width="1312"
     inkscape:window-height="566"
     inkscape:window-x="475"
     inkscape:window-y="379"
     inkscape:window-maximized="0"
     inkscape:current-layer="Layer_1" /><g
     id="g3"
     style="fill:url(#linearGradient4)"><path
       d="M46,31v-1h9.148c0.297,0.732,1.013,1.25,1.852,1.25c1.104,0,2-0.896,2-2s-0.896-2-2-2   c-1.019,0-1.851,0.765-1.975,1.75H46v-1h-2v-2h2v-1h2.651l3-2h3.497c0.297,0.732,1.013,1.25,1.852,1.25c1.104,0,2-0.896,2-2   s-0.896-2-2-2c-1.019,0-1.851,0.765-1.975,1.75h-3.677l-3,2H46v-1h-2v-3h-3v-2h-1v-1.833l3-4V9.429   c0.861-0.223,1.5-0.999,1.5-1.929c0-1.104-0.896-2-2-2s-2,0.896-2,2c0,0.93,0.639,1.706,1.5,1.929v2.404l-3,4V18h-1v2h-2v-2h-1   v-3.845l2-2.917V9.429c0.861-0.223,1.5-0.999,1.5-1.929c0-1.104-0.896-2-2-2s-2,0.896-2,2c0,0.93,0.639,1.706,1.5,1.929v1.5   l-2,2.917V18h-1v2h-2v-2h-1v-6.571c0.861-0.223,1.5-0.999,1.5-1.929c0-1.104-0.896-2-2-2s-2,0.896-2,2   c0,0.93,0.639,1.706,1.5,1.929V18h-1v2h-2v-2h-1v-3.207l-2-2V9.429c0.861-0.223,1.5-0.999,1.5-1.929c0-1.104-0.896-2-2-2   s-2,0.896-2,2c0,0.93,0.639,1.706,1.5,1.929v3.778l2,2V18h-1v2h-3v3h-2v1h-1.599l-3-2H9.725c-0.124-0.985-0.956-1.75-1.975-1.75   c-1.104,0-2,0.896-2,2s0.896,2,2,2c0.838,0,1.554-0.518,1.852-1.25h3.497l3,2H18v1h2v2h-2v1H8.725   c-0.124-0.985-0.956-1.75-1.975-1.75c-1.104,0-2,0.896-2,2s0.896,2,2,2c0.838,0,1.554-0.518,1.852-1.25H18v1h2v2h-2v1h-5.275   c-0.124-0.985-0.956-1.75-1.975-1.75c-1.104,0-2,0.896-2,2s0.896,2,2,2c0.838,0,1.554-0.518,1.852-1.25H18v1h2v2h-2v1h-2.901l-3,2   H8.725c-0.124-0.985-0.956-1.75-1.975-1.75c-1.104,0-2,0.896-2,2s0.896,2,2,2c0.838,0,1.554-0.518,1.852-1.25h3.8l3-2H18v1h2v3h3v2   h1v2.333l-3,4v2.737c-0.861,0.223-1.5,0.999-1.5,1.929c0,1.104,0.896,2,2,2s2-0.896,2-2c0-0.93-0.639-1.706-1.5-1.929v-2.404l3-4   V46h1v-2h2v2h1v4.345l-2,2.917v1.809c-0.861,0.223-1.5,0.999-1.5,1.929c0,1.104,0.896,2,2,2s2-0.896,2-2   c0-0.93-0.639-1.706-1.5-1.929v-1.5l2-2.917V46h1v-2h2v2h1v7.071c-0.861,0.223-1.5,0.999-1.5,1.929c0,1.104,0.896,2,2,2   s2-0.896,2-2c0-0.93-0.639-1.706-1.5-1.929V46h1v-2h2v2h1v3.707l2,2v3.364c-0.861,0.223-1.5,0.999-1.5,1.929c0,1.104,0.896,2,2,2   s2-0.896,2-2c0-0.93-0.639-1.706-1.5-1.929v-3.778l-2-2V46h1v-2h3v-3h2v-1h3.293l2,2h3.855c0.297,0.732,1.013,1.25,1.852,1.25   c1.104,0,2-0.896,2-2s-0.896-2-2-2c-1.019,0-1.851,0.765-1.975,1.75h-3.318l-2-2H46v-1h-2v-2h2v-1h5.148   c0.297,0.732,1.013,1.25,1.852,1.25c1.104,0,2-0.896,2-2s-0.896-2-2-2c-1.019,0-1.851,0.765-1.975,1.75H46v-1h-2v-2H46z M57,28.25   c0.552,0,1,0.448,1,1s-0.448,1-1,1s-1-0.448-1-1S56.448,28.25,57,28.25z M57,21.25c0.552,0,1,0.448,1,1s-0.448,1-1,1s-1-0.448-1-1   S56.448,21.25,57,21.25z M44,24h1v1h-1V24z M41.5,7.5c0-0.552,0.448-1,1-1s1,0.448,1,1s-0.448,1-1,1S41.5,8.052,41.5,7.5z    M35.5,7.5c0-0.552,0.448-1,1-1s1,0.448,1,1s-0.448,1-1,1S35.5,8.052,35.5,7.5z M28.5,9.5c0-0.552,0.448-1,1-1s1,0.448,1,1   s-0.448,1-1,1S28.5,10.052,28.5,9.5z M21.5,7.5c0-0.552,0.448-1,1-1s1,0.448,1,1s-0.448,1-1,1S21.5,8.052,21.5,7.5z M7.75,23.25   c-0.552,0-1-0.448-1-1s0.448-1,1-1s1,0.448,1,1S8.302,23.25,7.75,23.25z M6.75,30.25c-0.552,0-1-0.448-1-1s0.448-1,1-1s1,0.448,1,1   S7.302,30.25,6.75,30.25z M10.75,35.25c-0.552,0-1-0.448-1-1s0.448-1,1-1s1,0.448,1,1S11.302,35.25,10.75,35.25z M6.75,42.25   c-0.552,0-1-0.448-1-1s0.448-1,1-1s1,0.448,1,1S7.302,42.25,6.75,42.25z M20,40h-1v-1h1V40z M20,35h-1v-1h1V35z M20,30h-1v-1h1V30z    M20,25h-1v-1h1V25z M22.5,57c0,0.552-0.448,1-1,1s-1-0.448-1-1s0.448-1,1-1S22.5,56.448,22.5,57z M28.5,57c0,0.552-0.448,1-1,1   s-1-0.448-1-1s0.448-1,1-1S28.5,56.448,28.5,57z M35.5,55c0,0.552-0.448,1-1,1s-1-0.448-1-1s0.448-1,1-1S35.5,54.448,35.5,55z    M42.5,57c0,0.552-0.448,1-1,1s-1-0.448-1-1s0.448-1,1-1S42.5,56.448,42.5,57z M39,19h1v1h-1V19z M34,19h1v1h-1V19z M29,19h1v1h-1   V19z M24,19h1v1h-1V19z M25,45h-1v-1h1V45z M30,45h-1v-1h1V45z M35,45h-1v-1h1V45z M40,45h-1v-1h1V45z M43,43H21V21h22V43z    M57,40.25c0.552,0,1,0.448,1,1s-0.448,1-1,1s-1-0.448-1-1S56.448,40.25,57,40.25z M45,39v1h-1v-1H45z M53,33.25   c0.552,0,1,0.448,1,1s-0.448,1-1,1s-1-0.448-1-1S52.448,33.25,53,33.25z M45,34v1h-1v-1H45z M44,29h1v1h-1V29z"
       fill="#37474F"
       id="path1"
       style="fill:url(#linearGradient4)" /><path
       d="M41,23H23v18h18V23z M40,40H24V24h16V40z"
       fill="#37474F"
       id="path2"
       style="fill:url(#linearGradient4)" /><rect
       fill="#37474F"
       height="1"
       transform="matrix(-0.7071 0.7071 -0.7071 -0.7071 78.7548 28.3787)"
       width="9.899"
       x="28.55"
       y="30"
       id="rect2"
       style="fill:url(#linearGradient4)" /><rect
       fill="#37474F"
       height="1"
       transform="matrix(-0.7071 0.7071 -0.7071 -0.7071 72.1335 34.1213)"
       width="8.485"
       x="24.757"
       y="31.5"
       id="rect3"
       style="fill:url(#linearGradient4)" /></g></svg>
